<mxfile host="app.diagrams.net" agent="Mozilla/5.0 (Windows NT 10.0; Win64; x64) AppleWebKit/537.36 (KHTML, like Gecko) Chrome/129.0.0.0 Safari/537.36" version="24.7.17">
  <diagram name="Page-1" id="HckL7VBHgkXPggD20OZW">
    <mxGraphModel dx="2350" dy="1913" grid="1" gridSize="10" guides="1" tooltips="1" connect="1" arrows="1" fold="1" page="1" pageScale="1" pageWidth="850" pageHeight="1100" math="0" shadow="0">
      <root>
        <mxCell id="0" />
        <mxCell id="1" parent="0" />
        <mxCell id="Y3uAMjKzVA9Vt2U7fmpA-17" value="INMATES" style="whiteSpace=wrap;html=1;align=center;" vertex="1" parent="1">
          <mxGeometry x="160.5" y="120" width="80" height="40" as="geometry" />
        </mxCell>
        <mxCell id="Y3uAMjKzVA9Vt2U7fmpA-18" value="STAFF" style="whiteSpace=wrap;html=1;align=center;" vertex="1" parent="1">
          <mxGeometry x="500" y="40" width="80" height="40" as="geometry" />
        </mxCell>
        <mxCell id="Y3uAMjKzVA9Vt2U7fmpA-20" value="Serial NO." style="ellipse;whiteSpace=wrap;html=1;align=center;fontStyle=4;" vertex="1" parent="1">
          <mxGeometry x="20.5" y="80" width="80" height="40" as="geometry" />
        </mxCell>
        <mxCell id="Y3uAMjKzVA9Vt2U7fmpA-29" value="Weight&lt;span style=&quot;color: rgba(0, 0, 0, 0); font-family: monospace; font-size: 0px; text-align: start; text-wrap: nowrap;&quot;&gt;%3CmxGraphModel%3E%3Croot%3E%3CmxCell%20id%3D%220%22%2F%3E%3CmxCell%20id%3D%221%22%20parent%3D%220%22%2F%3E%3CmxCell%20id%3D%222%22%20value%3D%22Attribute%22%20style%3D%22ellipse%3BwhiteSpace%3Dwrap%3Bhtml%3D1%3Balign%3Dcenter%3B%22%20vertex%3D%221%22%20parent%3D%221%22%3E%3CmxGeometry%20x%3D%2230%22%20y%3D%22310%22%20width%3D%22100%22%20height%3D%2240%22%20as%3D%22geometry%22%2F%3E%3C%2FmxCell%3E%3C%2Froot%3E%3C%2FmxGraphModel%3E&lt;/span&gt;" style="ellipse;whiteSpace=wrap;html=1;align=center;" vertex="1" parent="1">
          <mxGeometry x="10.5" y="140" width="80" height="40" as="geometry" />
        </mxCell>
        <mxCell id="Y3uAMjKzVA9Vt2U7fmpA-30" value="Blood Type" style="ellipse;whiteSpace=wrap;html=1;align=center;" vertex="1" parent="1">
          <mxGeometry x="110.5" y="230" width="80" height="40" as="geometry" />
        </mxCell>
        <mxCell id="Y3uAMjKzVA9Vt2U7fmpA-31" value="Full Name" style="ellipse;whiteSpace=wrap;html=1;align=center;" vertex="1" parent="1">
          <mxGeometry x="70.5" y="30" width="80" height="40" as="geometry" />
        </mxCell>
        <mxCell id="Y3uAMjKzVA9Vt2U7fmpA-32" value="Date Of Birth" style="ellipse;whiteSpace=wrap;html=1;align=center;" vertex="1" parent="1">
          <mxGeometry x="150.5" y="30" width="80" height="50" as="geometry" />
        </mxCell>
        <mxCell id="Y3uAMjKzVA9Vt2U7fmpA-33" value="&lt;div&gt;Height&lt;/div&gt;" style="ellipse;whiteSpace=wrap;html=1;align=center;" vertex="1" parent="1">
          <mxGeometry x="10.5" y="200" width="80" height="40" as="geometry" />
        </mxCell>
        <mxCell id="Y3uAMjKzVA9Vt2U7fmpA-43" value="First Name&lt;span style=&quot;color: rgba(0, 0, 0, 0); font-family: monospace; font-size: 0px; text-align: start; text-wrap: nowrap;&quot;&gt;%3CmxGraphModel%3E%3Croot%3E%3CmxCell%20id%3D%220%22%2F%3E%3CmxCell%20id%3D%221%22%20parent%3D%220%22%2F%3E%3CmxCell%20id%3D%222%22%20value%3D%22Attribute%22%20style%3D%22ellipse%3BwhiteSpace%3Dwrap%3Bhtml%3D1%3Balign%3Dcenter%3B%22%20vertex%3D%221%22%20parent%3D%221%22%3E%3CmxGeometry%20x%3D%2230%22%20y%3D%22310%22%20width%3D%22100%22%20height%3D%2240%22%20as%3D%22geometry%22%2F%3E%3C%2FmxCell%3E%3C%2Froot%3E%3C%2FmxGraphModel%3E&lt;/span&gt;" style="ellipse;whiteSpace=wrap;html=1;align=center;fontStyle=4;" vertex="1" parent="1">
          <mxGeometry x="-49.5" y="10" width="80" height="40" as="geometry" />
        </mxCell>
        <mxCell id="Y3uAMjKzVA9Vt2U7fmpA-44" value="Second name" style="ellipse;whiteSpace=wrap;html=1;align=center;" vertex="1" parent="1">
          <mxGeometry x="0.5" y="-30" width="70" height="40" as="geometry" />
        </mxCell>
        <mxCell id="Y3uAMjKzVA9Vt2U7fmpA-53" value="&lt;span style=&quot;border-bottom: 1px dotted&quot;&gt;Cell No&lt;/span&gt;" style="ellipse;whiteSpace=wrap;html=1;align=center;" vertex="1" parent="1">
          <mxGeometry x="199" y="220" width="80" height="40" as="geometry" />
        </mxCell>
        <mxCell id="Y3uAMjKzVA9Vt2U7fmpA-60" value="Health" style="whiteSpace=wrap;html=1;align=center;" vertex="1" parent="1">
          <mxGeometry x="640" y="250" width="80" height="40" as="geometry" />
        </mxCell>
        <mxCell id="Y3uAMjKzVA9Vt2U7fmpA-62" value="&lt;span style=&quot;border-bottom: 1px dotted&quot;&gt;Attribute&lt;/span&gt;" style="ellipse;whiteSpace=wrap;html=1;align=center;" vertex="1" parent="1">
          <mxGeometry x="520" y="-20" width="80" height="40" as="geometry" />
        </mxCell>
        <mxCell id="Y3uAMjKzVA9Vt2U7fmpA-63" value="Patient ID" style="ellipse;whiteSpace=wrap;html=1;align=center;fontStyle=4;" vertex="1" parent="1">
          <mxGeometry x="640" y="170" width="80" height="40" as="geometry" />
        </mxCell>
        <mxCell id="Y3uAMjKzVA9Vt2U7fmpA-65" value="Date of Visit" style="ellipse;whiteSpace=wrap;html=1;align=center;" vertex="1" parent="1">
          <mxGeometry x="700" y="330" width="80" height="40" as="geometry" />
        </mxCell>
        <mxCell id="Y3uAMjKzVA9Vt2U7fmpA-66" value="&lt;span style=&quot;border-bottom: 1px dotted&quot;&gt;Staff ID&lt;/span&gt;" style="ellipse;whiteSpace=wrap;html=1;align=center;" vertex="1" parent="1">
          <mxGeometry x="620" y="340" width="70" height="40" as="geometry" />
        </mxCell>
        <mxCell id="Y3uAMjKzVA9Vt2U7fmpA-74" value="" style="endArrow=none;html=1;rounded=0;entryX=0.5;entryY=1;entryDx=0;entryDy=0;exitX=0.5;exitY=0;exitDx=0;exitDy=0;" edge="1" parent="1" source="Y3uAMjKzVA9Vt2U7fmpA-18" target="Y3uAMjKzVA9Vt2U7fmpA-62">
          <mxGeometry relative="1" as="geometry">
            <mxPoint x="360" y="30" as="sourcePoint" />
            <mxPoint x="520" y="30" as="targetPoint" />
          </mxGeometry>
        </mxCell>
        <mxCell id="Y3uAMjKzVA9Vt2U7fmpA-77" value="" style="endArrow=none;html=1;rounded=0;entryX=0.5;entryY=1;entryDx=0;entryDy=0;exitX=0.75;exitY=0;exitDx=0;exitDy=0;" edge="1" parent="1" source="Y3uAMjKzVA9Vt2U7fmpA-60" target="Y3uAMjKzVA9Vt2U7fmpA-61">
          <mxGeometry relative="1" as="geometry">
            <mxPoint x="700" y="40" as="sourcePoint" />
            <mxPoint x="720" y="20" as="targetPoint" />
          </mxGeometry>
        </mxCell>
        <mxCell id="Y3uAMjKzVA9Vt2U7fmpA-78" value="" style="endArrow=none;html=1;rounded=0;exitX=0.714;exitY=0;exitDx=0;exitDy=0;exitPerimeter=0;entryX=0.5;entryY=1;entryDx=0;entryDy=0;" edge="1" parent="1" source="Y3uAMjKzVA9Vt2U7fmpA-66" target="Y3uAMjKzVA9Vt2U7fmpA-60">
          <mxGeometry relative="1" as="geometry">
            <mxPoint x="710" y="50" as="sourcePoint" />
            <mxPoint x="680" y="300" as="targetPoint" />
          </mxGeometry>
        </mxCell>
        <mxCell id="Y3uAMjKzVA9Vt2U7fmpA-80" value="" style="endArrow=none;html=1;rounded=0;entryX=0.75;entryY=1;entryDx=0;entryDy=0;exitX=0.5;exitY=0;exitDx=0;exitDy=0;" edge="1" parent="1" source="Y3uAMjKzVA9Vt2U7fmpA-65" target="Y3uAMjKzVA9Vt2U7fmpA-60">
          <mxGeometry relative="1" as="geometry">
            <mxPoint x="680" y="350" as="sourcePoint" />
            <mxPoint x="690" y="300" as="targetPoint" />
          </mxGeometry>
        </mxCell>
        <mxCell id="Y3uAMjKzVA9Vt2U7fmpA-81" value="" style="endArrow=none;html=1;rounded=0;entryX=1;entryY=0.75;entryDx=0;entryDy=0;exitX=0;exitY=0.5;exitDx=0;exitDy=0;" edge="1" parent="1" source="Y3uAMjKzVA9Vt2U7fmpA-95" target="Y3uAMjKzVA9Vt2U7fmpA-60">
          <mxGeometry relative="1" as="geometry">
            <mxPoint x="760" y="290" as="sourcePoint" />
            <mxPoint x="710" y="300" as="targetPoint" />
          </mxGeometry>
        </mxCell>
        <mxCell id="Y3uAMjKzVA9Vt2U7fmpA-82" value="" style="endArrow=none;html=1;rounded=0;entryX=0.5;entryY=0;entryDx=0;entryDy=0;exitX=0.5;exitY=1;exitDx=0;exitDy=0;" edge="1" parent="1" source="Y3uAMjKzVA9Vt2U7fmpA-63" target="Y3uAMjKzVA9Vt2U7fmpA-60">
          <mxGeometry relative="1" as="geometry">
            <mxPoint x="760" y="350" as="sourcePoint" />
            <mxPoint x="720" y="310" as="targetPoint" />
          </mxGeometry>
        </mxCell>
        <mxCell id="Y3uAMjKzVA9Vt2U7fmpA-83" value="" style="endArrow=none;html=1;rounded=0;entryX=0.5;entryY=0;entryDx=0;entryDy=0;exitX=0.75;exitY=1;exitDx=0;exitDy=0;" edge="1" parent="1" source="Y3uAMjKzVA9Vt2U7fmpA-17" target="Y3uAMjKzVA9Vt2U7fmpA-53">
          <mxGeometry relative="1" as="geometry">
            <mxPoint x="630.5" y="300" as="sourcePoint" />
            <mxPoint x="250.5" y="230" as="targetPoint" />
          </mxGeometry>
        </mxCell>
        <mxCell id="Y3uAMjKzVA9Vt2U7fmpA-84" value="" style="endArrow=none;html=1;rounded=0;entryX=1;entryY=0;entryDx=0;entryDy=0;exitX=0.5;exitY=1;exitDx=0;exitDy=0;" edge="1" parent="1" source="Y3uAMjKzVA9Vt2U7fmpA-17" target="Y3uAMjKzVA9Vt2U7fmpA-30">
          <mxGeometry relative="1" as="geometry">
            <mxPoint x="230.5" y="170" as="sourcePoint" />
            <mxPoint x="260.5" y="240" as="targetPoint" />
          </mxGeometry>
        </mxCell>
        <mxCell id="Y3uAMjKzVA9Vt2U7fmpA-85" value="" style="endArrow=none;html=1;rounded=0;entryX=1;entryY=0.5;entryDx=0;entryDy=0;exitX=0;exitY=1;exitDx=0;exitDy=0;" edge="1" parent="1" source="Y3uAMjKzVA9Vt2U7fmpA-17" target="Y3uAMjKzVA9Vt2U7fmpA-33">
          <mxGeometry relative="1" as="geometry">
            <mxPoint x="210.5" y="170" as="sourcePoint" />
            <mxPoint x="188.5" y="246" as="targetPoint" />
          </mxGeometry>
        </mxCell>
        <mxCell id="Y3uAMjKzVA9Vt2U7fmpA-86" value="" style="endArrow=none;html=1;rounded=0;entryX=1;entryY=1;entryDx=0;entryDy=0;exitX=0;exitY=0.75;exitDx=0;exitDy=0;" edge="1" parent="1" source="Y3uAMjKzVA9Vt2U7fmpA-17" target="Y3uAMjKzVA9Vt2U7fmpA-29">
          <mxGeometry relative="1" as="geometry">
            <mxPoint x="170.5" y="170" as="sourcePoint" />
            <mxPoint x="100.5" y="230" as="targetPoint" />
          </mxGeometry>
        </mxCell>
        <mxCell id="Y3uAMjKzVA9Vt2U7fmpA-87" value="" style="endArrow=none;html=1;rounded=0;entryX=1;entryY=1;entryDx=0;entryDy=0;exitX=0;exitY=0.5;exitDx=0;exitDy=0;" edge="1" parent="1" source="Y3uAMjKzVA9Vt2U7fmpA-17" target="Y3uAMjKzVA9Vt2U7fmpA-20">
          <mxGeometry relative="1" as="geometry">
            <mxPoint x="180.5" y="180" as="sourcePoint" />
            <mxPoint x="110.5" y="240" as="targetPoint" />
          </mxGeometry>
        </mxCell>
        <mxCell id="Y3uAMjKzVA9Vt2U7fmpA-88" value="" style="endArrow=none;html=1;rounded=0;exitX=0;exitY=0.25;exitDx=0;exitDy=0;entryX=0.5;entryY=1;entryDx=0;entryDy=0;" edge="1" parent="1" source="Y3uAMjKzVA9Vt2U7fmpA-17" target="Y3uAMjKzVA9Vt2U7fmpA-31">
          <mxGeometry relative="1" as="geometry">
            <mxPoint x="170.5" y="150" as="sourcePoint" />
            <mxPoint x="98.5" y="124" as="targetPoint" />
          </mxGeometry>
        </mxCell>
        <mxCell id="Y3uAMjKzVA9Vt2U7fmpA-89" value="" style="endArrow=none;html=1;rounded=0;exitX=0.25;exitY=0;exitDx=0;exitDy=0;entryX=0.5;entryY=1;entryDx=0;entryDy=0;" edge="1" parent="1" source="Y3uAMjKzVA9Vt2U7fmpA-17" target="Y3uAMjKzVA9Vt2U7fmpA-32">
          <mxGeometry relative="1" as="geometry">
            <mxPoint x="170.5" y="140" as="sourcePoint" />
            <mxPoint x="120.5" y="80" as="targetPoint" />
          </mxGeometry>
        </mxCell>
        <mxCell id="Y3uAMjKzVA9Vt2U7fmpA-90" value="" style="endArrow=none;html=1;rounded=0;exitX=0;exitY=0.5;exitDx=0;exitDy=0;entryX=0.5;entryY=1;entryDx=0;entryDy=0;" edge="1" parent="1" source="Y3uAMjKzVA9Vt2U7fmpA-31" target="Y3uAMjKzVA9Vt2U7fmpA-44">
          <mxGeometry relative="1" as="geometry">
            <mxPoint x="190.5" y="130" as="sourcePoint" />
            <mxPoint x="192.5" y="83" as="targetPoint" />
          </mxGeometry>
        </mxCell>
        <mxCell id="Y3uAMjKzVA9Vt2U7fmpA-91" value="" style="endArrow=none;html=1;rounded=0;entryX=1;entryY=1;entryDx=0;entryDy=0;" edge="1" parent="1" target="Y3uAMjKzVA9Vt2U7fmpA-43">
          <mxGeometry relative="1" as="geometry">
            <mxPoint x="70.5" y="50" as="sourcePoint" />
            <mxPoint x="202.5" y="93" as="targetPoint" />
          </mxGeometry>
        </mxCell>
        <mxCell id="Y3uAMjKzVA9Vt2U7fmpA-95" value="Ailment" style="ellipse;shape=doubleEllipse;margin=3;whiteSpace=wrap;html=1;align=center;" vertex="1" parent="1">
          <mxGeometry x="760" y="290" width="100" height="40" as="geometry" />
        </mxCell>
        <mxCell id="Y3uAMjKzVA9Vt2U7fmpA-96" value="" style="fontSize=12;html=1;endArrow=ERzeroToMany;endFill=1;rounded=0;exitX=1;exitY=0.5;exitDx=0;exitDy=0;entryX=0;entryY=0.25;entryDx=0;entryDy=0;edgeStyle=orthogonalEdgeStyle;" edge="1" parent="1" source="Y3uAMjKzVA9Vt2U7fmpA-153" target="Y3uAMjKzVA9Vt2U7fmpA-60">
          <mxGeometry width="100" height="100" relative="1" as="geometry">
            <mxPoint x="400" y="380" as="sourcePoint" />
            <mxPoint x="500" y="280" as="targetPoint" />
          </mxGeometry>
        </mxCell>
        <mxCell id="Y3uAMjKzVA9Vt2U7fmpA-61" value="&lt;span style=&quot;border-bottom: 1px dotted&quot;&gt;Serial No&lt;/span&gt;" style="ellipse;whiteSpace=wrap;html=1;align=center;" vertex="1" parent="1">
          <mxGeometry x="750" y="170" width="80" height="40" as="geometry" />
        </mxCell>
        <mxCell id="Y3uAMjKzVA9Vt2U7fmpA-101" value="" style="edgeStyle=entityRelationEdgeStyle;fontSize=12;html=1;endArrow=ERzeroToMany;endFill=1;rounded=0;exitX=1;exitY=0.75;exitDx=0;exitDy=0;entryX=0.25;entryY=0;entryDx=0;entryDy=0;" edge="1" parent="1" source="Y3uAMjKzVA9Vt2U7fmpA-159" target="Y3uAMjKzVA9Vt2U7fmpA-60">
          <mxGeometry width="100" height="100" relative="1" as="geometry">
            <mxPoint x="890" y="210" as="sourcePoint" />
            <mxPoint x="830" y="30" as="targetPoint" />
          </mxGeometry>
        </mxCell>
        <mxCell id="Y3uAMjKzVA9Vt2U7fmpA-103" value="Date Of Birth" style="ellipse;whiteSpace=wrap;html=1;align=center;" vertex="1" parent="1">
          <mxGeometry x="490" y="100" width="100" height="40" as="geometry" />
        </mxCell>
        <mxCell id="Y3uAMjKzVA9Vt2U7fmpA-104" value="" style="endArrow=none;html=1;rounded=0;exitX=0.5;exitY=0;exitDx=0;exitDy=0;entryX=0.5;entryY=1;entryDx=0;entryDy=0;" edge="1" parent="1" source="Y3uAMjKzVA9Vt2U7fmpA-103" target="Y3uAMjKzVA9Vt2U7fmpA-18">
          <mxGeometry relative="1" as="geometry">
            <mxPoint x="210" y="230" as="sourcePoint" />
            <mxPoint x="212" y="183" as="targetPoint" />
          </mxGeometry>
        </mxCell>
        <mxCell id="Y3uAMjKzVA9Vt2U7fmpA-105" value="Occupation" style="ellipse;whiteSpace=wrap;html=1;align=center;" vertex="1" parent="1">
          <mxGeometry x="380" width="100" height="40" as="geometry" />
        </mxCell>
        <mxCell id="Y3uAMjKzVA9Vt2U7fmpA-106" value="" style="endArrow=none;html=1;rounded=0;exitX=0.25;exitY=0;exitDx=0;exitDy=0;entryX=1;entryY=0.5;entryDx=0;entryDy=0;" edge="1" parent="1" source="Y3uAMjKzVA9Vt2U7fmpA-18" target="Y3uAMjKzVA9Vt2U7fmpA-105">
          <mxGeometry relative="1" as="geometry">
            <mxPoint x="220" y="240" as="sourcePoint" />
            <mxPoint x="222" y="193" as="targetPoint" />
          </mxGeometry>
        </mxCell>
        <mxCell id="Y3uAMjKzVA9Vt2U7fmpA-113" value="GUARDS" style="whiteSpace=wrap;html=1;align=center;" vertex="1" parent="1">
          <mxGeometry x="100" y="440" width="99" height="40" as="geometry" />
        </mxCell>
        <mxCell id="Y3uAMjKzVA9Vt2U7fmpA-114" value="Cell Block" style="ellipse;whiteSpace=wrap;html=1;align=center;" vertex="1" parent="1">
          <mxGeometry x="-40" y="430" width="99" height="40" as="geometry" />
        </mxCell>
        <mxCell id="Y3uAMjKzVA9Vt2U7fmpA-115" value="Guard ID" style="ellipse;whiteSpace=wrap;html=1;align=center;fontStyle=4;" vertex="1" parent="1">
          <mxGeometry x="51" y="370" width="99" height="40" as="geometry" />
        </mxCell>
        <mxCell id="Y3uAMjKzVA9Vt2U7fmpA-116" value="&lt;span style=&quot;border-bottom: 1px dotted&quot;&gt;Staff ID&lt;/span&gt;" style="ellipse;whiteSpace=wrap;html=1;align=center;" vertex="1" parent="1">
          <mxGeometry x="-10" y="500" width="100" height="40" as="geometry" />
        </mxCell>
        <mxCell id="Y3uAMjKzVA9Vt2U7fmpA-117" value="Attribute" style="ellipse;whiteSpace=wrap;html=1;align=center;" vertex="1" parent="1">
          <mxGeometry x="160" y="370" width="100" height="40" as="geometry" />
        </mxCell>
        <mxCell id="Y3uAMjKzVA9Vt2U7fmpA-118" value="" style="edgeStyle=entityRelationEdgeStyle;fontSize=12;html=1;endArrow=ERzeroToMany;endFill=1;rounded=0;entryX=1;entryY=0.5;entryDx=0;entryDy=0;exitX=0;exitY=0.5;exitDx=0;exitDy=0;" edge="1" parent="1" source="Y3uAMjKzVA9Vt2U7fmpA-151" target="Y3uAMjKzVA9Vt2U7fmpA-113">
          <mxGeometry width="100" height="100" relative="1" as="geometry">
            <mxPoint x="220" y="400" as="sourcePoint" />
            <mxPoint x="320" y="300" as="targetPoint" />
          </mxGeometry>
        </mxCell>
        <mxCell id="Y3uAMjKzVA9Vt2U7fmpA-122" value="" style="endArrow=none;html=1;rounded=0;exitX=1;exitY=0.5;exitDx=0;exitDy=0;entryX=0.428;entryY=1.055;entryDx=0;entryDy=0;entryPerimeter=0;" edge="1" parent="1" source="Y3uAMjKzVA9Vt2U7fmpA-116" target="Y3uAMjKzVA9Vt2U7fmpA-113">
          <mxGeometry relative="1" as="geometry">
            <mxPoint x="190" y="470" as="sourcePoint" />
            <mxPoint x="350" y="470" as="targetPoint" />
          </mxGeometry>
        </mxCell>
        <mxCell id="Y3uAMjKzVA9Vt2U7fmpA-123" value="" style="endArrow=none;html=1;rounded=0;exitX=0;exitY=0.5;exitDx=0;exitDy=0;entryX=1;entryY=0.5;entryDx=0;entryDy=0;" edge="1" parent="1" source="Y3uAMjKzVA9Vt2U7fmpA-113" target="Y3uAMjKzVA9Vt2U7fmpA-114">
          <mxGeometry relative="1" as="geometry">
            <mxPoint x="100" y="530" as="sourcePoint" />
            <mxPoint x="152" y="492" as="targetPoint" />
          </mxGeometry>
        </mxCell>
        <mxCell id="Y3uAMjKzVA9Vt2U7fmpA-124" value="" style="endArrow=none;html=1;rounded=0;exitX=0.25;exitY=0;exitDx=0;exitDy=0;entryX=0.5;entryY=1;entryDx=0;entryDy=0;" edge="1" parent="1" source="Y3uAMjKzVA9Vt2U7fmpA-113" target="Y3uAMjKzVA9Vt2U7fmpA-115">
          <mxGeometry relative="1" as="geometry">
            <mxPoint x="110" y="470" as="sourcePoint" />
            <mxPoint x="69" y="460" as="targetPoint" />
          </mxGeometry>
        </mxCell>
        <mxCell id="Y3uAMjKzVA9Vt2U7fmpA-125" value="" style="endArrow=none;html=1;rounded=0;exitX=0.5;exitY=0;exitDx=0;exitDy=0;entryX=0;entryY=1;entryDx=0;entryDy=0;" edge="1" parent="1" source="Y3uAMjKzVA9Vt2U7fmpA-113" target="Y3uAMjKzVA9Vt2U7fmpA-117">
          <mxGeometry relative="1" as="geometry">
            <mxPoint x="135" y="450" as="sourcePoint" />
            <mxPoint x="111" y="420" as="targetPoint" />
          </mxGeometry>
        </mxCell>
        <mxCell id="Y3uAMjKzVA9Vt2U7fmpA-126" value="CELLS" style="whiteSpace=wrap;html=1;align=center;" vertex="1" parent="1">
          <mxGeometry x="380" y="470" width="100" height="40" as="geometry" />
        </mxCell>
        <mxCell id="Y3uAMjKzVA9Vt2U7fmpA-127" value="Cell No" style="ellipse;whiteSpace=wrap;html=1;align=center;fontStyle=4;" vertex="1" parent="1">
          <mxGeometry x="425" y="410" width="100" height="40" as="geometry" />
        </mxCell>
        <mxCell id="Y3uAMjKzVA9Vt2U7fmpA-129" value="Full name" style="ellipse;whiteSpace=wrap;html=1;align=center;" vertex="1" parent="1">
          <mxGeometry x="520" y="460" width="100" height="40" as="geometry" />
        </mxCell>
        <mxCell id="Y3uAMjKzVA9Vt2U7fmpA-132" value="" style="endArrow=none;html=1;rounded=0;exitX=0.75;exitY=0;exitDx=0;exitDy=0;entryX=0.5;entryY=1;entryDx=0;entryDy=0;" edge="1" parent="1" source="Y3uAMjKzVA9Vt2U7fmpA-126" target="Y3uAMjKzVA9Vt2U7fmpA-127">
          <mxGeometry relative="1" as="geometry">
            <mxPoint x="145" y="460" as="sourcePoint" />
            <mxPoint x="121" y="430" as="targetPoint" />
          </mxGeometry>
        </mxCell>
        <mxCell id="Y3uAMjKzVA9Vt2U7fmpA-133" value="" style="endArrow=none;html=1;rounded=0;exitX=1;exitY=0.5;exitDx=0;exitDy=0;entryX=0;entryY=0.5;entryDx=0;entryDy=0;" edge="1" parent="1" source="Y3uAMjKzVA9Vt2U7fmpA-126" target="Y3uAMjKzVA9Vt2U7fmpA-129">
          <mxGeometry relative="1" as="geometry">
            <mxPoint x="465" y="480" as="sourcePoint" />
            <mxPoint x="485" y="460" as="targetPoint" />
          </mxGeometry>
        </mxCell>
        <mxCell id="Y3uAMjKzVA9Vt2U7fmpA-134" value="" style="endArrow=none;html=1;rounded=0;exitX=0.75;exitY=1;exitDx=0;exitDy=0;entryX=0;entryY=0;entryDx=0;entryDy=0;" edge="1" parent="1" source="Y3uAMjKzVA9Vt2U7fmpA-126">
          <mxGeometry relative="1" as="geometry">
            <mxPoint x="490" y="500" as="sourcePoint" />
            <mxPoint x="484.64466094067257" y="545.8578643762689" as="targetPoint" />
          </mxGeometry>
        </mxCell>
        <mxCell id="Y3uAMjKzVA9Vt2U7fmpA-136" value="" style="edgeStyle=entityRelationEdgeStyle;fontSize=12;html=1;endArrow=ERzeroToMany;endFill=1;rounded=0;entryX=1;entryY=0.75;entryDx=0;entryDy=0;exitX=0;exitY=0.25;exitDx=0;exitDy=0;" edge="1" parent="1" source="Y3uAMjKzVA9Vt2U7fmpA-126" target="Y3uAMjKzVA9Vt2U7fmpA-17">
          <mxGeometry width="100" height="100" relative="1" as="geometry">
            <mxPoint x="250" y="430" as="sourcePoint" />
            <mxPoint x="350" y="330" as="targetPoint" />
          </mxGeometry>
        </mxCell>
        <mxCell id="Y3uAMjKzVA9Vt2U7fmpA-137" value="" style="edgeStyle=entityRelationEdgeStyle;fontSize=12;html=1;endArrow=ERzeroToMany;endFill=1;rounded=0;entryX=0;entryY=0.5;entryDx=0;entryDy=0;exitX=1;exitY=0.75;exitDx=0;exitDy=0;" edge="1" parent="1" source="Y3uAMjKzVA9Vt2U7fmpA-155" target="Y3uAMjKzVA9Vt2U7fmpA-126">
          <mxGeometry width="100" height="100" relative="1" as="geometry">
            <mxPoint x="390" y="490" as="sourcePoint" />
            <mxPoint x="250" y="240" as="targetPoint" />
          </mxGeometry>
        </mxCell>
        <mxCell id="Y3uAMjKzVA9Vt2U7fmpA-138" value="&lt;span style=&quot;border-bottom: 1px dotted&quot;&gt;Guard ID&lt;/span&gt;" style="ellipse;whiteSpace=wrap;html=1;align=center;" vertex="1" parent="1">
          <mxGeometry x="465" y="540" width="100" height="40" as="geometry" />
        </mxCell>
        <mxCell id="Y3uAMjKzVA9Vt2U7fmpA-140" value="Many" style="shape=ext;margin=3;double=1;whiteSpace=wrap;html=1;align=center;" vertex="1" parent="1">
          <mxGeometry x="910" y="410" width="100" height="40" as="geometry" />
        </mxCell>
        <mxCell id="Y3uAMjKzVA9Vt2U7fmpA-141" value="Inventory" style="shape=ext;margin=3;double=1;whiteSpace=wrap;html=1;align=center;" vertex="1" parent="1">
          <mxGeometry x="880" y="-60" width="100" height="40" as="geometry" />
        </mxCell>
        <mxCell id="Y3uAMjKzVA9Vt2U7fmpA-152" value="" style="edgeStyle=orthogonalEdgeStyle;fontSize=12;html=1;endArrow=ERzeroToMany;endFill=1;rounded=0;entryX=1;entryY=0.5;entryDx=0;entryDy=0;exitX=0;exitY=0.25;exitDx=0;exitDy=0;" edge="1" parent="1" source="Y3uAMjKzVA9Vt2U7fmpA-18" target="Y3uAMjKzVA9Vt2U7fmpA-151">
          <mxGeometry width="100" height="100" relative="1" as="geometry">
            <mxPoint x="500" y="50" as="sourcePoint" />
            <mxPoint x="199" y="460" as="targetPoint" />
          </mxGeometry>
        </mxCell>
        <mxCell id="Y3uAMjKzVA9Vt2U7fmpA-151" value="Relationship" style="shape=rhombus;perimeter=rhombusPerimeter;whiteSpace=wrap;html=1;align=center;" vertex="1" parent="1">
          <mxGeometry x="330" y="310" width="120" height="60" as="geometry" />
        </mxCell>
        <mxCell id="Y3uAMjKzVA9Vt2U7fmpA-154" value="" style="fontSize=12;html=1;endArrow=ERzeroToMany;endFill=1;rounded=0;exitX=1;exitY=0.5;exitDx=0;exitDy=0;entryX=0;entryY=0.5;entryDx=0;entryDy=0;edgeStyle=orthogonalEdgeStyle;" edge="1" parent="1" source="Y3uAMjKzVA9Vt2U7fmpA-17" target="Y3uAMjKzVA9Vt2U7fmpA-153">
          <mxGeometry width="100" height="100" relative="1" as="geometry">
            <mxPoint x="240" y="220" as="sourcePoint" />
            <mxPoint x="640" y="260" as="targetPoint" />
          </mxGeometry>
        </mxCell>
        <mxCell id="Y3uAMjKzVA9Vt2U7fmpA-153" value="Relationship" style="shape=rhombus;perimeter=rhombusPerimeter;whiteSpace=wrap;html=1;align=center;" vertex="1" parent="1">
          <mxGeometry x="360" y="150" width="120" height="60" as="geometry" />
        </mxCell>
        <mxCell id="Y3uAMjKzVA9Vt2U7fmpA-156" value="" style="edgeStyle=entityRelationEdgeStyle;fontSize=12;html=1;endArrow=ERzeroToMany;endFill=1;rounded=0;entryX=0;entryY=0.5;entryDx=0;entryDy=0;exitX=1;exitY=0.75;exitDx=0;exitDy=0;" edge="1" parent="1" source="Y3uAMjKzVA9Vt2U7fmpA-113" target="Y3uAMjKzVA9Vt2U7fmpA-155">
          <mxGeometry width="100" height="100" relative="1" as="geometry">
            <mxPoint x="199" y="470" as="sourcePoint" />
            <mxPoint x="380" y="490" as="targetPoint" />
          </mxGeometry>
        </mxCell>
        <mxCell id="Y3uAMjKzVA9Vt2U7fmpA-155" value="Relationship" style="shape=rhombus;perimeter=rhombusPerimeter;whiteSpace=wrap;html=1;align=center;" vertex="1" parent="1">
          <mxGeometry x="220" y="510" width="120" height="60" as="geometry" />
        </mxCell>
        <mxCell id="Y3uAMjKzVA9Vt2U7fmpA-160" value="" style="edgeStyle=orthogonalEdgeStyle;fontSize=12;html=1;endArrow=ERzeroToMany;endFill=1;rounded=0;exitX=1;exitY=0.75;exitDx=0;exitDy=0;entryX=0.5;entryY=0;entryDx=0;entryDy=0;" edge="1" parent="1" source="Y3uAMjKzVA9Vt2U7fmpA-18" target="Y3uAMjKzVA9Vt2U7fmpA-159">
          <mxGeometry width="100" height="100" relative="1" as="geometry">
            <mxPoint x="580" y="70" as="sourcePoint" />
            <mxPoint x="660" y="250" as="targetPoint" />
          </mxGeometry>
        </mxCell>
        <mxCell id="Y3uAMjKzVA9Vt2U7fmpA-159" value="Relationship" style="shape=rhombus;perimeter=rhombusPerimeter;whiteSpace=wrap;html=1;align=center;" vertex="1" parent="1">
          <mxGeometry x="560" y="120" width="100" height="80" as="geometry" />
        </mxCell>
        <mxCell id="Y3uAMjKzVA9Vt2U7fmpA-162" value="&lt;span style=&quot;border-bottom: 1px dotted&quot;&gt;Patient ID&lt;/span&gt;" style="ellipse;whiteSpace=wrap;html=1;align=center;" vertex="1" parent="1">
          <mxGeometry x="850" y="490" width="100" height="40" as="geometry" />
        </mxCell>
        <mxCell id="Y3uAMjKzVA9Vt2U7fmpA-166" value="" style="edgeStyle=orthogonalEdgeStyle;fontSize=12;html=1;endArrow=ERmandOne;startArrow=ERmandOne;rounded=0;exitX=1;exitY=0.5;exitDx=0;exitDy=0;entryX=0.25;entryY=0;entryDx=0;entryDy=0;" edge="1" parent="1" source="Y3uAMjKzVA9Vt2U7fmpA-158" target="Y3uAMjKzVA9Vt2U7fmpA-140">
          <mxGeometry width="100" height="100" relative="1" as="geometry">
            <mxPoint x="790" y="350" as="sourcePoint" />
            <mxPoint x="890" y="250" as="targetPoint" />
          </mxGeometry>
        </mxCell>
        <mxCell id="Y3uAMjKzVA9Vt2U7fmpA-168" value="" style="fontSize=12;html=1;endArrow=ERmandOne;startArrow=ERmandOne;rounded=0;exitX=1;exitY=0.5;exitDx=0;exitDy=0;entryX=0;entryY=0.5;entryDx=0;entryDy=0;edgeStyle=orthogonalEdgeStyle;" edge="1" parent="1" source="Y3uAMjKzVA9Vt2U7fmpA-60" target="Y3uAMjKzVA9Vt2U7fmpA-158">
          <mxGeometry width="100" height="100" relative="1" as="geometry">
            <mxPoint x="720" y="270" as="sourcePoint" />
            <mxPoint x="960" y="410" as="targetPoint" />
          </mxGeometry>
        </mxCell>
        <mxCell id="Y3uAMjKzVA9Vt2U7fmpA-158" value="Relationship" style="shape=rhombus;double=1;perimeter=rhombusPerimeter;whiteSpace=wrap;html=1;align=center;" vertex="1" parent="1">
          <mxGeometry x="840" y="240" width="120" height="60" as="geometry" />
        </mxCell>
        <mxCell id="Y3uAMjKzVA9Vt2U7fmpA-170" value="" style="endArrow=none;html=1;rounded=0;exitX=1;exitY=0.5;exitDx=0;exitDy=0;entryX=0;entryY=0.5;entryDx=0;entryDy=0;" edge="1" parent="1" source="Y3uAMjKzVA9Vt2U7fmpA-176" target="Y3uAMjKzVA9Vt2U7fmpA-140">
          <mxGeometry relative="1" as="geometry">
            <mxPoint x="880.0000000000086" y="440" as="sourcePoint" />
            <mxPoint x="690" y="300" as="targetPoint" />
          </mxGeometry>
        </mxCell>
        <mxCell id="Y3uAMjKzVA9Vt2U7fmpA-171" value="" style="endArrow=none;html=1;rounded=0;entryX=0.101;entryY=1.035;entryDx=0;entryDy=0;entryPerimeter=0;exitX=0.5;exitY=0;exitDx=0;exitDy=0;" edge="1" parent="1" source="Y3uAMjKzVA9Vt2U7fmpA-162" target="Y3uAMjKzVA9Vt2U7fmpA-140">
          <mxGeometry relative="1" as="geometry">
            <mxPoint x="890" y="450" as="sourcePoint" />
            <mxPoint x="920" y="440" as="targetPoint" />
          </mxGeometry>
        </mxCell>
        <mxCell id="Y3uAMjKzVA9Vt2U7fmpA-172" value="" style="endArrow=none;html=1;rounded=0;exitX=0.5;exitY=0;exitDx=0;exitDy=0;entryX=0.75;entryY=1;entryDx=0;entryDy=0;" edge="1" parent="1" source="Y3uAMjKzVA9Vt2U7fmpA-174" target="Y3uAMjKzVA9Vt2U7fmpA-140">
          <mxGeometry relative="1" as="geometry">
            <mxPoint x="1010" y="490" as="sourcePoint" />
            <mxPoint x="930" y="450" as="targetPoint" />
          </mxGeometry>
        </mxCell>
        <mxCell id="Y3uAMjKzVA9Vt2U7fmpA-173" value="" style="endArrow=none;html=1;rounded=0;exitX=0.5;exitY=0;exitDx=0;exitDy=0;entryX=0;entryY=1;entryDx=0;entryDy=0;" edge="1" parent="1" source="Y3uAMjKzVA9Vt2U7fmpA-140" target="Y3uAMjKzVA9Vt2U7fmpA-177">
          <mxGeometry relative="1" as="geometry">
            <mxPoint x="1020" y="500" as="sourcePoint" />
            <mxPoint x="984.7592640563953" y="384.18782875651596" as="targetPoint" />
          </mxGeometry>
        </mxCell>
        <mxCell id="Y3uAMjKzVA9Vt2U7fmpA-175" value="" style="endArrow=none;html=1;rounded=0;exitX=0.5;exitY=0;exitDx=0;exitDy=0;entryX=0.75;entryY=1;entryDx=0;entryDy=0;" edge="1" parent="1" target="Y3uAMjKzVA9Vt2U7fmpA-174">
          <mxGeometry relative="1" as="geometry">
            <mxPoint x="1010" y="490" as="sourcePoint" />
            <mxPoint x="985" y="450" as="targetPoint" />
          </mxGeometry>
        </mxCell>
        <mxCell id="Y3uAMjKzVA9Vt2U7fmpA-174" value="Dosage" style="ellipse;whiteSpace=wrap;html=1;align=center;" vertex="1" parent="1">
          <mxGeometry x="960" y="480" width="100" height="40" as="geometry" />
        </mxCell>
        <mxCell id="Y3uAMjKzVA9Vt2U7fmpA-176" value="Period of prescription" style="ellipse;whiteSpace=wrap;html=1;align=center;" vertex="1" parent="1">
          <mxGeometry x="780" y="420" width="100" height="40" as="geometry" />
        </mxCell>
        <mxCell id="Y3uAMjKzVA9Vt2U7fmpA-177" value="Prescribed by" style="ellipse;whiteSpace=wrap;html=1;align=center;" vertex="1" parent="1">
          <mxGeometry x="980" y="360" width="100" height="40" as="geometry" />
        </mxCell>
        <mxCell id="Y3uAMjKzVA9Vt2U7fmpA-178" value="" style="edgeStyle=entityRelationEdgeStyle;fontSize=12;html=1;endArrow=ERoneToMany;rounded=0;entryX=0;entryY=0.5;entryDx=0;entryDy=0;exitX=1;exitY=0.25;exitDx=0;exitDy=0;" edge="1" parent="1" source="Y3uAMjKzVA9Vt2U7fmpA-142" target="Y3uAMjKzVA9Vt2U7fmpA-141">
          <mxGeometry width="100" height="100" relative="1" as="geometry">
            <mxPoint x="800" y="100" as="sourcePoint" />
            <mxPoint x="900" as="targetPoint" />
          </mxGeometry>
        </mxCell>
        <mxCell id="Y3uAMjKzVA9Vt2U7fmpA-179" value="" style="edgeStyle=entityRelationEdgeStyle;fontSize=12;html=1;endArrow=ERoneToMany;rounded=0;entryX=0;entryY=0.5;entryDx=0;entryDy=0;exitX=1;exitY=0.25;exitDx=0;exitDy=0;" edge="1" parent="1" source="Y3uAMjKzVA9Vt2U7fmpA-18" target="Y3uAMjKzVA9Vt2U7fmpA-142">
          <mxGeometry width="100" height="100" relative="1" as="geometry">
            <mxPoint x="580" y="50" as="sourcePoint" />
            <mxPoint x="880" y="-40" as="targetPoint" />
          </mxGeometry>
        </mxCell>
        <mxCell id="Y3uAMjKzVA9Vt2U7fmpA-142" value="have" style="shape=rhombus;double=1;perimeter=rhombusPerimeter;whiteSpace=wrap;html=1;align=center;" vertex="1" parent="1">
          <mxGeometry x="690" y="-20" width="80" height="60" as="geometry" />
        </mxCell>
        <mxCell id="Y3uAMjKzVA9Vt2U7fmpA-180" value="&lt;span style=&quot;border-bottom: 1px dotted&quot;&gt;Staff ID&lt;/span&gt;" style="ellipse;whiteSpace=wrap;html=1;align=center;" vertex="1" parent="1">
          <mxGeometry x="880" width="100" height="40" as="geometry" />
        </mxCell>
        <mxCell id="Y3uAMjKzVA9Vt2U7fmpA-181" value="Item" style="ellipse;whiteSpace=wrap;html=1;align=center;" vertex="1" parent="1">
          <mxGeometry x="880" y="-120" width="100" height="40" as="geometry" />
        </mxCell>
        <mxCell id="Y3uAMjKzVA9Vt2U7fmpA-182" value="Quantity" style="ellipse;whiteSpace=wrap;html=1;align=center;" vertex="1" parent="1">
          <mxGeometry x="1000" y="-70" width="100" height="40" as="geometry" />
        </mxCell>
        <mxCell id="Y3uAMjKzVA9Vt2U7fmpA-183" value="" style="endArrow=none;html=1;rounded=0;entryX=0;entryY=0.5;entryDx=0;entryDy=0;exitX=1;exitY=0.5;exitDx=0;exitDy=0;" edge="1" parent="1" source="Y3uAMjKzVA9Vt2U7fmpA-141" target="Y3uAMjKzVA9Vt2U7fmpA-182">
          <mxGeometry relative="1" as="geometry">
            <mxPoint x="860" y="-70" as="sourcePoint" />
            <mxPoint x="1020" y="-70" as="targetPoint" />
          </mxGeometry>
        </mxCell>
        <mxCell id="Y3uAMjKzVA9Vt2U7fmpA-184" value="" style="endArrow=none;html=1;rounded=0;entryX=0.5;entryY=1;entryDx=0;entryDy=0;exitX=0.5;exitY=0;exitDx=0;exitDy=0;" edge="1" parent="1" source="Y3uAMjKzVA9Vt2U7fmpA-141" target="Y3uAMjKzVA9Vt2U7fmpA-181">
          <mxGeometry relative="1" as="geometry">
            <mxPoint x="990" y="-30" as="sourcePoint" />
            <mxPoint x="1010" y="-40" as="targetPoint" />
          </mxGeometry>
        </mxCell>
        <mxCell id="Y3uAMjKzVA9Vt2U7fmpA-185" value="" style="endArrow=none;html=1;rounded=0;exitX=0.5;exitY=1;exitDx=0;exitDy=0;entryX=0.5;entryY=0;entryDx=0;entryDy=0;" edge="1" parent="1" source="Y3uAMjKzVA9Vt2U7fmpA-141" target="Y3uAMjKzVA9Vt2U7fmpA-180">
          <mxGeometry relative="1" as="geometry">
            <mxPoint x="940" y="-50" as="sourcePoint" />
            <mxPoint x="940" y="-70" as="targetPoint" />
          </mxGeometry>
        </mxCell>
      </root>
    </mxGraphModel>
  </diagram>
</mxfile>
